<?xml version="1.0" encoding="UTF-8" standalone="no"?>
<!DOCTYPE svg PUBLIC "-//W3C//DTD SVG 1.1//EN"
 "http://www.w3.org/Graphics/SVG/1.1/DTD/svg11.dtd">
<!-- Generated by graphviz version 2.40.1 (20161225.0304)
 -->
<!-- Title: my_graph Pages: 1 -->
<svg width="214pt" height="260pt"
 viewBox="0.00 0.00 213.84 260.00" xmlns="http://www.w3.org/2000/svg" xmlns:xlink="http://www.w3.org/1999/xlink">
<g id="graph0" class="graph" transform="scale(1 1) rotate(0) translate(4 256)">
<title>my_graph</title>
<polygon fill="#ffffff" stroke="transparent" points="-4,4 -4,-256 209.8437,-256 209.8437,4 -4,4"/>
<!-- s1_31879632 -->
<g id="node1" class="node">
<title>s1_31879632</title>
<ellipse fill="none" stroke="#000000" cx="70.8437" cy="-90" rx="27" ry="18"/>
<text text-anchor="middle" x="70.8437" y="-86.3" font-family="Times,serif" font-size="14.00" fill="#000000">1</text>
</g>
<!-- s1_31879760 -->
<g id="node2" class="node">
<title>s1_31879760</title>
<ellipse fill="none" stroke="#000000" cx="106.8437" cy="-18" rx="27" ry="18"/>
<text text-anchor="middle" x="106.8437" y="-14.3" font-family="Times,serif" font-size="14.00" fill="#000000">1</text>
</g>
<!-- s2_31879696 -->
<g id="node3" class="node">
<title>s2_31879696</title>
<ellipse fill="none" stroke="#000000" cx="178.8437" cy="-18" rx="27" ry="18"/>
<text text-anchor="middle" x="178.8437" y="-14.3" font-family="Times,serif" font-size="14.00" fill="#000000">2</text>
</g>
<!-- sStatementAssign_31880048 -->
<g id="node4" class="node">
<title>sStatementAssign_31880048</title>
<ellipse fill="none" stroke="#000000" cx="70.8437" cy="-234" rx="70.6878" ry="18"/>
<text text-anchor="middle" x="70.8437" y="-230.3" font-family="Times,serif" font-size="14.00" fill="#000000">StatementAssign</text>
</g>
<!-- sidiot_31880048 -->
<g id="node5" class="node">
<title>sidiot_31880048</title>
<ellipse fill="none" stroke="#000000" cx="34.8437" cy="-162" rx="27" ry="18"/>
<text text-anchor="middle" x="34.8437" y="-158.3" font-family="Times,serif" font-size="14.00" fill="#000000">idiot</text>
</g>
<!-- sStatementAssign_31880048&#45;&#45;sidiot_31880048 -->
<g id="edge1" class="edge">
<title>sStatementAssign_31880048&#45;&#45;sidiot_31880048</title>
<path fill="none" stroke="#000000" d="M61.7594,-215.8314C56.1771,-204.6667 49.0642,-190.441 43.5526,-179.4177"/>
</g>
<!-- splus_31879936 -->
<g id="node7" class="node">
<title>splus_31879936</title>
<ellipse fill="none" stroke="#000000" cx="106.8437" cy="-162" rx="27" ry="18"/>
<text text-anchor="middle" x="106.8437" y="-158.3" font-family="Times,serif" font-size="14.00" fill="#000000">plus</text>
</g>
<!-- sStatementAssign_31880048&#45;&#45;splus_31879936 -->
<g id="edge2" class="edge">
<title>sStatementAssign_31880048&#45;&#45;splus_31879936</title>
<path fill="none" stroke="#000000" d="M79.928,-215.8314C85.5103,-204.6667 92.6232,-190.441 98.1349,-179.4177"/>
</g>
<!-- splus_31879824 -->
<g id="node6" class="node">
<title>splus_31879824</title>
<ellipse fill="none" stroke="#000000" cx="142.8437" cy="-90" rx="27" ry="18"/>
<text text-anchor="middle" x="142.8437" y="-86.3" font-family="Times,serif" font-size="14.00" fill="#000000">plus</text>
</g>
<!-- splus_31879824&#45;&#45;s1_31879760 -->
<g id="edge4" class="edge">
<title>splus_31879824&#45;&#45;s1_31879760</title>
<path fill="none" stroke="#000000" d="M134.1291,-72.5708C128.469,-61.2506 121.1221,-46.5568 115.4781,-35.2687"/>
</g>
<!-- splus_31879824&#45;&#45;s2_31879696 -->
<g id="edge3" class="edge">
<title>splus_31879824&#45;&#45;s2_31879696</title>
<path fill="none" stroke="#000000" d="M151.5583,-72.5708C157.2184,-61.2506 164.5653,-46.5568 170.2094,-35.2687"/>
</g>
<!-- splus_31879936&#45;&#45;s1_31879632 -->
<g id="edge5" class="edge">
<title>splus_31879936&#45;&#45;s1_31879632</title>
<path fill="none" stroke="#000000" d="M98.1291,-144.5708C92.469,-133.2506 85.1221,-118.5568 79.4781,-107.2687"/>
</g>
<!-- splus_31879936&#45;&#45;splus_31879824 -->
<g id="edge6" class="edge">
<title>splus_31879936&#45;&#45;splus_31879824</title>
<path fill="none" stroke="#000000" d="M115.5583,-144.5708C121.2184,-133.2506 128.5653,-118.5568 134.2094,-107.2687"/>
</g>
</g>
</svg>
