<?xml version="1.0" encoding="UTF-8" standalone="no"?>
<!DOCTYPE svg PUBLIC "-//W3C//DTD SVG 1.1//EN"
 "http://www.w3.org/Graphics/SVG/1.1/DTD/svg11.dtd">
<!-- Generated by graphviz version 2.40.1 (20161225.0304)
 -->
<!-- Title: my_graph Pages: 1 -->
<svg width="400pt" height="260pt"
 viewBox="0.00 0.00 400.45 260.00" xmlns="http://www.w3.org/2000/svg" xmlns:xlink="http://www.w3.org/1999/xlink">
<g id="graph0" class="graph" transform="scale(1 1) rotate(0) translate(4 256)">
<title>my_graph</title>
<polygon fill="#ffffff" stroke="transparent" points="-4,4 -4,-256 396.4469,-256 396.4469,4 -4,4"/>
<!-- s2_9253472 -->
<g id="node1" class="node">
<title>s2_9253472</title>
<ellipse fill="none" stroke="#000000" cx="167.4469" cy="-18" rx="27" ry="18"/>
<text text-anchor="middle" x="167.4469" y="-14.3" font-family="Times,serif" font-size="14.00" fill="#000000">2</text>
</g>
<!-- s2_9253536 -->
<g id="node2" class="node">
<title>s2_9253536</title>
<ellipse fill="none" stroke="#000000" cx="239.4469" cy="-18" rx="27" ry="18"/>
<text text-anchor="middle" x="239.4469" y="-14.3" font-family="Times,serif" font-size="14.00" fill="#000000">2</text>
</g>
<!-- s2_9253808 -->
<g id="node3" class="node">
<title>s2_9253808</title>
<ellipse fill="none" stroke="#000000" cx="34.4469" cy="-90" rx="27" ry="18"/>
<text text-anchor="middle" x="34.4469" y="-86.3" font-family="Times,serif" font-size="14.00" fill="#000000">2</text>
</g>
<!-- sINT_9253328 -->
<g id="node4" class="node">
<title>sINT_9253328</title>
<ellipse fill="none" stroke="#000000" cx="293.4469" cy="-90" rx="27" ry="18"/>
<text text-anchor="middle" x="293.4469" y="-86.3" font-family="Times,serif" font-size="14.00" fill="#000000">INT</text>
</g>
<!-- sMethodBody_9253872 -->
<g id="node5" class="node">
<title>sMethodBody_9253872</title>
<ellipse fill="none" stroke="#000000" cx="157.4469" cy="-234" rx="57.6901" ry="18"/>
<text text-anchor="middle" x="157.4469" y="-230.3" font-family="Times,serif" font-size="14.00" fill="#000000">MethodBody</text>
</g>
<!-- sReturn_9253872 -->
<g id="node6" class="node">
<title>sReturn_9253872</title>
<ellipse fill="none" stroke="#000000" cx="34.4469" cy="-162" rx="34.394" ry="18"/>
<text text-anchor="middle" x="34.4469" y="-158.3" font-family="Times,serif" font-size="14.00" fill="#000000">Return</text>
</g>
<!-- sMethodBody_9253872&#45;&#45;sReturn_9253872 -->
<g id="edge3" class="edge">
<title>sMethodBody_9253872&#45;&#45;sReturn_9253872</title>
<path fill="none" stroke="#000000" d="M130.1493,-218.0209C108.3506,-205.2607 78.1459,-187.5799 57.5372,-175.5162"/>
</g>
<!-- sStatementAssign_9253712 -->
<g id="node7" class="node">
<title>sStatementAssign_9253712</title>
<ellipse fill="none" stroke="#000000" cx="157.4469" cy="-162" rx="70.6878" ry="18"/>
<text text-anchor="middle" x="157.4469" y="-158.3" font-family="Times,serif" font-size="14.00" fill="#000000">StatementAssign</text>
</g>
<!-- sMethodBody_9253872&#45;&#45;sStatementAssign_9253712 -->
<g id="edge2" class="edge">
<title>sMethodBody_9253872&#45;&#45;sStatementAssign_9253712</title>
<path fill="none" stroke="#000000" d="M157.4469,-215.8314C157.4469,-205 157.4469,-191.2876 157.4469,-180.4133"/>
</g>
<!-- sVarDeclaration_9253376 -->
<g id="node8" class="node">
<title>sVarDeclaration_9253376</title>
<ellipse fill="none" stroke="#000000" cx="311.4469" cy="-162" rx="64.9885" ry="18"/>
<text text-anchor="middle" x="311.4469" y="-158.3" font-family="Times,serif" font-size="14.00" fill="#000000">VarDeclaration</text>
</g>
<!-- sMethodBody_9253872&#45;&#45;sVarDeclaration_9253376 -->
<g id="edge1" class="edge">
<title>sMethodBody_9253872&#45;&#45;sVarDeclaration_9253376</title>
<path fill="none" stroke="#000000" d="M189.7304,-218.9064C215.6608,-206.7831 251.945,-189.8191 278.1424,-177.571"/>
</g>
<!-- sReturn_9253872&#45;&#45;s2_9253808 -->
<g id="edge4" class="edge">
<title>sReturn_9253872&#45;&#45;s2_9253808</title>
<path fill="none" stroke="#000000" d="M34.4469,-143.8314C34.4469,-133 34.4469,-119.2876 34.4469,-108.4133"/>
</g>
<!-- scurr_9253712 -->
<g id="node10" class="node">
<title>scurr_9253712</title>
<ellipse fill="none" stroke="#000000" cx="131.4469" cy="-90" rx="27" ry="18"/>
<text text-anchor="middle" x="131.4469" y="-86.3" font-family="Times,serif" font-size="14.00" fill="#000000">curr</text>
</g>
<!-- sStatementAssign_9253712&#45;&#45;scurr_9253712 -->
<g id="edge5" class="edge">
<title>sStatementAssign_9253712&#45;&#45;scurr_9253712</title>
<path fill="none" stroke="#000000" d="M150.886,-143.8314C146.9146,-132.8334 141.8704,-118.865 137.9157,-107.9134"/>
</g>
<!-- splus_9253600 -->
<g id="node11" class="node">
<title>splus_9253600</title>
<ellipse fill="none" stroke="#000000" cx="203.4469" cy="-90" rx="27" ry="18"/>
<text text-anchor="middle" x="203.4469" y="-86.3" font-family="Times,serif" font-size="14.00" fill="#000000">plus</text>
</g>
<!-- sStatementAssign_9253712&#45;&#45;splus_9253600 -->
<g id="edge6" class="edge">
<title>sStatementAssign_9253712&#45;&#45;splus_9253600</title>
<path fill="none" stroke="#000000" d="M168.8177,-144.2022C176.1608,-132.7088 185.65,-117.8561 192.8377,-106.6058"/>
</g>
<!-- sVarDeclaration_9253376&#45;&#45;sINT_9253328 -->
<g id="edge7" class="edge">
<title>sVarDeclaration_9253376&#45;&#45;sINT_9253328</title>
<path fill="none" stroke="#000000" d="M306.9048,-143.8314C304.1553,-132.8334 300.6632,-118.865 297.9253,-107.9134"/>
</g>
<!-- scurr_9253376 -->
<g id="node9" class="node">
<title>scurr_9253376</title>
<ellipse fill="none" stroke="#000000" cx="365.4469" cy="-90" rx="27" ry="18"/>
<text text-anchor="middle" x="365.4469" y="-86.3" font-family="Times,serif" font-size="14.00" fill="#000000">curr</text>
</g>
<!-- sVarDeclaration_9253376&#45;&#45;scurr_9253376 -->
<g id="edge8" class="edge">
<title>sVarDeclaration_9253376&#45;&#45;scurr_9253376</title>
<path fill="none" stroke="#000000" d="M324.7953,-144.2022C333.5403,-132.5422 344.8783,-117.4249 353.3577,-106.119"/>
</g>
<!-- splus_9253600&#45;&#45;s2_9253472 -->
<g id="edge9" class="edge">
<title>splus_9253600&#45;&#45;s2_9253472</title>
<path fill="none" stroke="#000000" d="M194.7323,-72.5708C189.0723,-61.2506 181.7253,-46.5568 176.0813,-35.2687"/>
</g>
<!-- splus_9253600&#45;&#45;s2_9253536 -->
<g id="edge10" class="edge">
<title>splus_9253600&#45;&#45;s2_9253536</title>
<path fill="none" stroke="#000000" d="M212.1615,-72.5708C217.8216,-61.2506 225.1685,-46.5568 230.8126,-35.2687"/>
</g>
</g>
</svg>
